<?xml version="1.0" encoding="utf-8"?>
<!-- Generator: Adobe Illustrator 15.0.0, SVG Export Plug-In . SVG Version: 6.00 Build 0)  -->
<!DOCTYPE svg PUBLIC "-//W3C//DTD SVG 1.1//EN" "http://www.w3.org/Graphics/SVG/1.1/DTD/svg11.dtd">
<svg version="1.1" id="Layer_1" xmlns="http://www.w3.org/2000/svg" xmlns:xlink="http://www.w3.org/1999/xlink" x="0px" y="0px"
	 width="100px" height="100px" viewBox="0 0 100 100" enable-background="new 0 0 100 100" xml:space="preserve">
<path d="M86,0H10C4.4,0,0,4.4,0,10v76c0,5.6,4.4,10,10,10h76c5.6,0,10-4.4,10-10V10C96,4.4,91.6,0,86,0z M65.4,59.6
	c-8.801,11.4-16.201,17-22.201,17c-3.799,0-7-3.398-9.6-10.398c-1.799-6.398-3.4-12.602-5.199-19c-2-7-4-10.398-6.201-10.398
	c-0.398,0-2.199,1-5,3l-3-3.801c3.201-2.801,6.201-5.6,9.4-8.4c4.201-3.6,7.4-5.6,9.6-5.799c5-0.4,8,3,9.201,10.199
	c1.2,7.8,2.2,12.8,2.6,14.599c1.4,6.6,3,9.799,4.801,9.799c1.398,0,3.398-2.199,6-6.398c2.6-4.199,4.199-7.4,4.398-9.6
	c0.4-3.6-1-5.4-4.398-5.4C54.199,35,52.6,35.4,51,36c3.199-10.199,9.199-15.199,18.199-15c6.602,0.199,9.801,4.4,9.4,12.801
	C78.4,40.199,74,48.801,65.4,59.6z"/>
</svg>
